<?xml version="1.0" encoding="iso-8859-1"?>
<!-- Generator: Adobe Illustrator 19.0.0, SVG Export Plug-In . SVG Version: 6.00 Build 0)  -->
<svg version="1.1" id="Capa_1" xmlns="http://www.w3.org/2000/svg" xmlns:xlink="http://www.w3.org/1999/xlink" x="0px" y="0px"
	 viewBox="0 0 512 512" style="enable-background:new 0 0 512 512;" xml:space="preserve">
<g>
	<g>
		<path d="M507.647,168.678L387.206,46.556c-2.84-2.88-6.718-4.502-10.764-4.502h-59.465H195.024H135.56
			c-4.046,0-7.923,1.622-10.764,4.502L4.355,168.678c-5.559,5.636-5.829,14.606-0.618,20.566l240.882,275.535
			c2.871,3.284,7.02,5.167,11.382,5.167s8.51-1.884,11.382-5.167l240.882-275.535C513.474,183.286,513.205,174.316,507.647,168.678z
			 M370.117,72.29l90.622,91.886h-73.437L341.423,72.29H370.117z M204.374,72.29c0,0,103.254,0,103.254,0l45.879,91.886H158.495
			L204.374,72.29z M141.883,72.29h28.694l-45.879,91.886H51.262L141.883,72.29z M48.417,194.413h75.79l77.717,175.591
			L48.417,194.413z M256.001,417.475l-98.728-223.063H354.73L256.001,417.475z M310.077,370.003l77.717-175.591h75.79
			L310.077,370.003z"/>
	</g>
</g>
<g>
</g>
<g>
</g>
<g>
</g>
<g>
</g>
<g>
</g>
<g>
</g>
<g>
</g>
<g>
</g>
<g>
</g>
<g>
</g>
<g>
</g>
<g>
</g>
<g>
</g>
<g>
</g>
<g>
</g>
</svg>
